<?xml version="1.0" standalone="no"?>
<!DOCTYPE svg PUBLIC "-//W3C//DTD SVG 20010904//EN"
 "http://www.w3.org/TR/2001/REC-SVG-20010904/DTD/svg10.dtd">
<svg version="1.0" xmlns="http://www.w3.org/2000/svg"
 width="300.000000pt" height="300.000000pt" viewBox="0 0 300.000000 300.000000"
 preserveAspectRatio="xMidYMid meet">
<metadata>
Created by potrace 1.10, written by Peter Selinger 2001-2011
</metadata>
<g transform="translate(0.000000,300.000000) scale(0.100000,-0.100000)"
fill="#000000" stroke="none">
<path d="M1470 2330 c12 -8 11 -10 -7 -10 -33 0 -56 -40 -44 -74 6 -14 15 -26
20 -26 5 0 11 -9 14 -20 3 -11 0 -20 -6 -20 -27 0 -67 -48 -68 -81 -1 -25 -3
-28 -6 -11 -4 19 -7 21 -19 11 -8 -6 -15 -9 -15 -5 -1 3 -2 9 -3 14 -1 4 -12
19 -26 35 -17 20 -26 24 -32 15 -6 -10 -8 -10 -8 -1 0 7 14 25 30 40 63 56 14
111 -77 87 -29 -8 -42 -67 -21 -92 26 -30 29 -40 10 -35 -18 4 -92 -65 -92
-87 0 -14 -8 -13 -46 10 -45 28 -102 24 -129 -9 -11 -14 -19 -29 -17 -33 1 -5
-3 -7 -10 -6 -20 5 -9 -91 13 -113 21 -21 18 -39 -6 -39 -7 0 -31 -21 -53 -46
-37 -44 -40 -46 -63 -32 -13 8 -28 14 -34 12 -33 -7 -55 -18 -56 -28 0 -6 -2
-20 -5 -31 -2 -11 1 -32 7 -47 9 -21 18 -28 39 -28 19 0 35 9 48 28 l21 27 29
-32 c16 -18 38 -33 50 -33 11 0 24 -5 27 -10 5 -8 11 -7 21 1 7 6 21 8 30 5
21 -8 97 71 89 92 -3 7 -5 28 -5 46 0 35 -28 76 -52 76 -7 0 -14 9 -14 20 0
12 5 19 12 16 12 -5 64 43 64 60 0 5 9 15 20 22 17 10 20 10 20 -4 0 -18 38
-53 58 -54 6 0 12 -3 12 -7 0 -5 13 -8 30 -9 16 -1 27 3 24 7 -3 5 4 9 15 9
27 0 83 50 77 67 -3 7 -1 13 4 13 5 0 8 12 6 28 -2 15 -1 19 1 10 5 -21 14
-23 32 -5 10 10 12 9 11 -3 -4 -29 0 -40 15 -40 9 0 18 -6 20 -12 4 -9 28 -13
75 -13 49 0 70 4 70 13 0 6 7 12 15 12 9 0 21 11 27 25 11 25 28 34 28 14 0
-5 5 -7 10 -4 6 3 10 -5 10 -19 0 -30 53 -86 81 -86 11 0 18 -4 15 -8 -2 -4
10 -8 29 -8 19 0 31 4 29 8 -3 4 2 8 11 8 31 0 54 41 55 97 0 47 -4 56 -37 88
-26 25 -42 33 -56 29 -16 -5 -17 -3 -8 14 6 12 16 24 21 27 16 10 12 54 -7 75
-27 28 -84 30 -105 3 -24 -28 -23 -48 5 -70 12 -10 28 -26 36 -36 12 -15 12
-17 -3 -11 -22 8 -76 -47 -72 -73 2 -10 1 -12 -1 -5 -3 6 -11 12 -19 12 -8 0
-13 4 -10 9 9 14 -37 75 -62 81 l-22 5 20 30 c34 52 22 105 -24 105 -17 0 -18
2 -6 10 11 7 3 10 -30 10 -33 0 -41 -3 -30 -10z m59 -31 c55 -19 35 -69 -29
-69 -61 0 -84 49 -32 68 15 6 27 11 28 11 1 1 15 -4 33 -10z m-222 -45 c9 -23
-23 -44 -64 -44 -39 0 -44 21 -11 44 29 21 67 20 75 0z m457 5 c55 -26 29 -64
-32 -47 -36 10 -53 35 -31 49 19 12 33 11 63 -2z m-189 -124 c14 -13 25 -36
25 -50 0 -14 -11 -37 -25 -50 -19 -20 -34 -25 -75 -25 -41 0 -56 5 -75 25 -57
56 -12 124 83 125 32 0 49 -6 67 -25z m-273 -22 c52 -47 -13 -158 -88 -151
-26 2 -43 11 -57 29 -17 23 -18 31 -7 63 6 20 23 45 37 56 31 24 90 26 115 3z
m506 1 c31 -21 55 -71 48 -99 -16 -65 -88 -75 -142 -21 -38 38 -44 77 -18 114
18 27 78 30 112 6z m-750 -46 c29 -29 0 -97 -52 -122 -77 -36 -106 36 -42 100
35 35 72 44 94 22z m-28 -228 c29 -29 25 -73 -10 -113 -47 -54 -117 -56 -141
-3 -15 33 -4 73 31 107 35 36 89 40 120 9z m-234 -55 c13 -33 -24 -103 -47
-90 -15 10 -10 67 8 87 20 22 32 23 39 3z"/>
<path d="M1928 2081 c-39 -27 -49 -61 -25 -86 6 -7 23 -27 36 -44 13 -17 29
-31 36 -31 7 0 15 -9 18 -20 3 -13 0 -20 -10 -20 -19 0 -43 -24 -43 -44 0 -9
-3 -16 -7 -16 -5 0 -9 -19 -11 -43 -2 -32 0 -39 9 -27 9 13 10 12 5 -3 -5 -17
24 -57 43 -57 5 0 11 -6 14 -14 4 -9 14 -12 26 -9 15 4 21 1 21 -12 0 -17 1
-17 18 -2 10 10 28 17 40 17 11 0 27 8 34 18 14 20 65 51 54 34 -3 -6 7 -20
24 -32 l30 -21 25 25 c23 23 35 76 17 76 -4 0 -12 10 -17 23 -12 26 -61 32
-75 7 -7 -12 -17 -6 -56 33 -26 26 -54 47 -61 47 -26 0 -26 30 1 51 29 22 35
64 14 102 -15 30 -58 68 -68 62 -5 -3 -19 -1 -32 4 -18 7 -31 3 -60 -18z m108
-35 c24 -24 34 -43 34 -65 0 -61 -62 -62 -113 -1 -31 36 -34 62 -11 84 24 25
53 19 90 -18z m54 -213 c40 -36 50 -89 22 -122 -36 -46 -114 -24 -148 40 -44
85 53 148 126 82z m152 -50 c25 -22 25 -83 0 -83 -28 0 -55 73 -35 93 9 10 15
9 35 -10z"/>
<path d="M1580 1932 c0 -4 -48 -6 -107 -5 -73 2 -103 0 -93 -7 11 -7 6 -10
-20 -10 -88 -2 -196 -70 -252 -161 -16 -27 -34 -49 -40 -49 -6 0 -8 -10 -4
-24 4 -15 1 -26 -6 -28 -19 -7 -19 -285 -1 -293 10 -3 12 -12 7 -27 -9 -32 -9
-32 -37 -4 -16 16 -32 23 -41 20 -9 -3 -16 -2 -16 2 0 5 -14 9 -32 9 -24 0
-43 -10 -72 -38 l-40 -38 -19 25 c-25 34 -72 36 -83 4 -12 -38 -4 -82 19 -100
27 -22 56 -23 63 -3 10 24 22 18 75 -36 31 -32 55 -49 64 -45 23 8 18 -11 -7
-28 -27 -19 -42 -101 -22 -121 8 -7 14 -16 14 -20 0 -13 27 -33 62 -45 34 -13
39 -12 75 13 44 30 53 33 53 14 0 -20 63 -77 85 -78 12 0 15 -3 7 -6 -10 -4
-10 -8 -1 -19 9 -11 8 -15 -5 -20 -19 -7 -22 -54 -4 -72 7 -7 20 -12 31 -12
11 0 15 -4 11 -11 -4 -8 1 -9 17 -4 58 18 69 25 69 45 0 25 -29 60 -50 60 -13
0 -13 1 0 10 13 9 13 11 0 20 -12 8 -11 10 6 10 29 0 54 31 54 68 0 17 5 34
10 37 6 4 8 11 4 16 -3 5 -10 6 -16 3 -7 -5 -9 -1 -5 9 7 18 -31 67 -52 67 -7
0 -9 5 -6 10 6 10 -24 16 -55 11 -8 -1 -25 -2 -38 -2 -13 1 -20 -4 -17 -9 3
-6 1 -10 -5 -10 -14 0 -40 -25 -40 -39 0 -21 -18 -11 -45 25 -15 19 -39 40
-53 45 -23 9 -25 12 -12 23 42 33 64 68 62 98 -1 16 3 37 9 44 9 11 16 7 38
-24 34 -45 114 -112 135 -112 9 0 16 -4 16 -10 0 -5 16 -10 36 -10 19 0 33 -4
30 -9 -7 -11 68 -21 164 -21 96 0 171 10 164 21 -3 5 11 9 31 9 22 0 34 4 30
10 -3 6 3 10 14 10 25 0 49 18 121 90 58 57 90 129 90 199 0 18 4 30 8 27 4
-2 8 26 8 64 0 38 -4 64 -8 57 -4 -7 -8 5 -8 29 0 22 -9 68 -21 102 -17 50
-32 72 -84 121 -66 61 -147 101 -205 101 -17 0 -30 4 -30 9 0 5 -7 11 -15 15
-8 3 -15 2 -15 -2z m53 -47 c124 -32 214 -102 265 -205 25 -51 27 -64 27 -180
0 -147 -14 -188 -92 -271 -79 -85 -193 -129 -333 -129 -140 0 -254 44 -333
129 -78 83 -92 124 -92 271 0 117 2 129 28 182 49 100 137 172 247 202 72 19
211 20 283 1z m-659 -569 c42 -18 76 -61 76 -97 0 -69 -87 -94 -140 -40 -60
59 -46 134 28 150 1 1 17 -5 36 -13z m-185 -32 c25 -55 2 -95 -31 -54 -17 21
-25 70 -12 83 11 10 31 -3 43 -29z m244 -238 c50 -47 46 -108 -7 -114 -37 -5
-96 54 -96 95 0 37 6 43 45 43 20 0 42 -9 58 -24z m253 -30 c58 -58 39 -136
-34 -136 -45 0 -76 20 -98 62 -46 89 58 148 132 74z m-10 -221 c25 -10 35 -20
32 -32 -4 -24 -43 -28 -74 -9 -33 22 -32 45 4 55 1 1 19 -6 38 -14z"/>
<path d="M1443 1866 c-19 -16 -35 -43 -43 -73 -31 -113 -61 -146 -169 -188
-84 -32 -106 -54 -106 -107 0 -51 33 -81 113 -104 79 -23 131 -78 155 -161 23
-85 53 -118 107 -118 54 0 82 31 106 117 23 82 76 136 157 161 81 25 112 54
112 105 0 54 -22 75 -109 108 -93 35 -136 79 -159 161 -21 76 -50 112 -98 119
-28 5 -41 1 -66 -20z m80 -20 c9 -7 17 -18 17 -25 0 -6 6 -11 14 -11 8 0 16
-16 20 -41 8 -48 9 -45 -28 -55 -21 -5 -27 -4 -22 5 5 7 -3 11 -23 11 -17 0
-31 -4 -31 -9 0 -4 -11 -6 -25 -3 -21 4 -25 10 -25 39 0 20 4 32 10 28 6 -3
10 3 10 14 0 12 5 21 10 21 6 0 10 6 10 14 0 12 13 20 40 25 3 0 13 -6 23 -13z
m82 -190 c46 -35 74 -96 75 -159 0 -137 -139 -229 -258 -168 -46 23 -67 46
-87 94 -38 90 -4 195 80 249 46 29 141 21 190 -16z m-302 -97 c-3 -11 -9 -22
-14 -25 -13 -7 -11 -51 3 -73 6 -10 9 -25 6 -33 -10 -25 -88 0 -120 37 l-27
31 21 32 c11 18 28 32 40 32 10 0 17 3 15 8 -3 4 14 8 38 8 37 2 42 -1 38 -17z
m472 11 c-3 -5 2 -10 12 -10 10 0 28 -15 40 -33 l23 -32 -29 -29 c-35 -34
-101 -60 -116 -45 -7 7 -5 13 5 19 13 9 13 10 0 10 -10 0 -11 3 -4 8 14 9 12
70 -3 97 -10 19 -8 20 34 23 29 2 43 -1 38 -8z m-196 -294 c6 -4 8 -13 4 -19
-4 -7 -9 -22 -11 -35 -3 -24 -35 -62 -52 -62 -5 0 -7 -7 -4 -15 4 -10 0 -15
-15 -15 -13 0 -18 5 -15 13 2 7 -7 19 -21 27 -16 9 -25 22 -25 37 0 13 -4 22
-9 18 -8 -4 -9 21 -2 56 1 8 135 4 150 -5z"/>
<path d="M1449 1585 c-85 -46 -46 -180 53 -180 33 0 45 6 69 33 76 85 -21 202
-122 147z m91 -36 c0 -6 7 -17 15 -25 20 -21 19 -24 -15 -61 -32 -34 -47 -34
-82 -4 -23 19 -23 59 -1 83 17 19 83 25 83 7z"/>
<path d="M906 1641 c-3 -4 -23 -11 -43 -14 -31 -5 -44 -15 -68 -51 -16 -24
-34 -42 -38 -39 -4 3 -6 10 -4 16 10 30 -62 49 -87 24 -32 -32 -50 -107 -25
-107 5 0 8 -4 4 -9 -3 -5 4 -16 15 -24 27 -19 104 -3 96 19 -11 27 14 13 36
-21 47 -71 118 -73 175 -6 28 32 33 135 8 145 -8 3 -15 12 -15 20 0 8 -14 17
-30 21 -25 6 -29 9 -19 21 6 8 9 14 6 14 -3 0 -8 -4 -11 -9z m9 -47 c21 -8 45
-56 45 -89 0 -33 -24 -81 -45 -89 -59 -22 -108 18 -108 89 0 71 49 111 108 89z
m-191 -46 c22 -30 20 -61 -4 -89 l-20 -24 -20 24 c-11 13 -20 33 -20 45 0 23
26 66 40 66 5 0 16 -10 24 -22z"/>
<path d="M2102 1624 c-18 -7 -36 -13 -40 -11 -4 1 -17 -7 -29 -18 -18 -17 -22
-33 -24 -88 -2 -61 0 -69 24 -91 33 -31 87 -42 118 -25 33 17 49 35 49 54 0 9
4 14 9 10 5 -3 13 -1 16 5 4 7 15 1 29 -14 19 -23 25 -25 58 -16 30 9 37 16
42 45 7 36 0 82 -17 103 -17 22 -64 14 -87 -15 -17 -22 -23 -25 -30 -13 -6 8
-10 11 -10 5 0 -5 -8 5 -17 23 -9 19 -24 37 -32 40 -9 3 -18 9 -21 13 -3 4
-20 1 -38 -7z m59 -50 c18 -19 24 -37 24 -69 0 -93 -100 -132 -140 -54 -19 36
-19 72 0 109 25 48 78 54 116 14z m163 -26 c22 -30 20 -61 -4 -89 l-20 -24
-20 24 c-11 13 -20 33 -20 45 0 23 26 66 40 66 5 0 16 -10 24 -22z"/>
<path d="M2023 1348 c7 -5 3 -8 -12 -8 -14 0 -37 -14 -57 -37 -28 -30 -33 -44
-32 -77 1 -34 8 -48 41 -80 37 -37 38 -40 21 -52 -42 -28 -64 -50 -64 -62 0
-7 -7 -15 -15 -18 -28 -11 -17 -57 22 -86 42 -32 51 -33 98 -14 38 16 75 68
75 104 0 44 -50 107 -77 97 -7 -2 -13 0 -13 6 0 7 12 9 33 5 27 -5 38 -1 69
28 21 19 36 41 35 48 -2 7 -2 9 1 5 2 -4 10 -2 18 4 12 9 17 8 27 -5 17 -24
58 -17 73 11 6 13 14 20 17 16 13 -13 6 62 -7 80 -19 24 -67 19 -81 -9 -12
-25 -24 -22 -68 19 -27 26 -42 32 -75 32 -22 0 -35 -3 -29 -7z m90 -50 c28
-33 22 -75 -17 -114 -45 -45 -94 -47 -126 -7 -36 46 -11 110 55 139 36 15 63
10 88 -18z m147 -22 c0 -35 -31 -73 -49 -61 -14 8 -14 41 0 68 25 47 49 43 49
-7z m-192 -244 c3 -26 -3 -39 -31 -67 -38 -38 -67 -44 -91 -19 -24 23 -19 49
15 89 27 31 37 36 68 33 33 -3 36 -6 39 -36z"/>
<path d="M1734 1074 c-41 -21 -74 -64 -74 -97 0 -16 -4 -26 -9 -23 -12 8 -21
-18 -11 -34 6 -10 9 -8 13 6 3 14 5 12 6 -7 1 -30 29 -59 57 -59 16 0 17 -2 4
-10 -13 -9 -13 -11 0 -20 13 -9 13 -10 0 -10 -19 0 -50 -35 -50 -55 0 -16 31
-39 69 -50 16 -5 21 -4 17 4 -4 6 0 11 9 11 8 0 23 5 33 11 22 14 18 59 -6 73
-12 7 -12 10 -1 17 12 8 12 11 -1 19 -13 9 -13 10 0 11 8 1 18 1 23 0 4 -1 21
14 37 31 40 45 42 119 5 162 -16 18 -30 26 -40 22 -9 -3 -24 -2 -34 3 -12 7
-27 5 -47 -5z m96 -34 c43 -23 30 -108 -22 -144 -34 -24 -94 -21 -112 6 -26
37 -20 76 18 114 36 36 78 44 116 24z m-54 -276 c-28 -25 -52 -30 -74 -16 -37
24 41 70 82 49 19 -9 19 -11 -8 -33z"/>
<path d="M1422 1004 c-6 -7 -16 -14 -22 -16 -6 -2 -13 -18 -15 -37 -2 -18 -7
-41 -10 -50 -6 -21 27 -67 55 -76 26 -8 25 -30 0 -57 -25 -27 -25 -40 -2 -66
17 -19 107 -48 96 -31 -3 5 4 9 14 9 11 0 25 6 31 14 15 18 10 77 -6 83 -16 6
-17 43 -1 43 17 0 68 61 68 82 0 28 -24 81 -45 98 -22 19 -146 22 -163 4z
m123 -18 c58 -25 72 -80 30 -121 -34 -35 -111 -35 -149 0 -45 42 -26 106 37
124 44 13 44 13 82 -3z m6 -232 c9 -11 10 -20 2 -32 -14 -23 -92 -23 -106 0
-17 25 9 48 53 48 22 0 43 -7 51 -16z"/>
<path d="M1357 953 c-11 -10 -8 -53 3 -53 6 0 10 14 10 30 0 31 -2 35 -13 23z"/>
</g>
</svg>
